# xmcd
#
# Track frame offsets:
#	150
#	16461
#	30602
#	43820
#	57984
#	77959
#	95988
#	112993
#	128402
#	146372
#	156084
#	177590
#	207749
#	225106
#	236363
#	255026
#	267361
#	278187
#
# Disc length: 3951 seconds
#
# Revision: 3
# Processed by: cddbd v1.5.2PL0 Copyright (c) Steve Scherf et al.
# Submitted via: EasyCDDAExtractor 12.0.1.1
#
DISCID=f20f6d12
DTITLE=Various Artist - The Ultimate Latin Album 6 CD2
DYEAR=2004
DGENRE=Latin
TTITLE0=Chris De Burgh - RB 24 - The Lady In Red
TTITLE1=Luis Miguel - RB 25 - Manana De Carnaval
TTITLE2=George Dallaras and Al Di Meola - RB 26 - Hara Mou (My Joy)
TTITLE3=Los Magicos Paraguayos - RB 26 - Tu
TTITLE4=Cachao - RB 26 - El Son No Ha Muerto
TTITLE5=Paulina Rubio - RB 24 - Amor Secreto
TTITLE6=Christian - RB 25 - Llorar Por Dentro
TTITLE7=Bro' Sis - RB 25 - I Believe
TTITLE8=Donato and Estefano - RB 25 - Mi Dios Y Mi Cruz
TTITLE9=Dinah Washington - RB 25 - Love Walked In
TTITLE10=Laura Fygi - RB 25 - The Lady Wants To Know
TTITLE11=Gotan Project - RB 25 - Vuelvo Al Sur
TTITLE12=D.Hirchfelder - PD 59 - Scott and Fran's Paso Doble
TTITLE13=Shakin' Stevens - JV 38 - Yes I Do
TTITLE14=Alvin Lee - JV 42 - Keep On Rockin
TTITLE15=Showaddywaddy - JV 42 - Dancing Party
TTITLE16=Katie Webster - JV 43 - Do The Katie Lee
TTITLE17=Cherry Poppin' Daddies - JV 43 - Zoot Suit Riot
EXTD=
EXTT0=
EXTT1=
EXTT2=
EXTT3=
EXTT4=
EXTT5=
EXTT6=
EXTT7=
EXTT8=
EXTT9=
EXTT10=
EXTT11=
EXTT12=
EXTT13=
EXTT14=
EXTT15=
EXTT16=
EXTT17=
PLAYORDER=
